# AST/ASF file generated using VICON BodyLanguage
# -----------------------------------------------
:version 1.10
:name VICON
:units
  mass 1.0
  length 0.45
  angle deg
:documentation
   .ast/.asf automatically generated from VICON data using
   VICON BodyBuilder and BodyLanguage model FoxedUp or BRILLIANT.MOD
:root
   order TX TY TZ RX RY RZ
   axis XYZ
   position 0 0 0  
   orientation 0 0 0 
:bonedata
  begin
     id 1 
     name lhipjoint
     direction 0.521452 -0.77106 0.36545 
     length 2.0933 
     axis 0 0 0  XYZ
  end
  begin
     id 2 
     name lfemur
     direction 0.34202 -0.939693 0  
     length 6.83441  
     axis 0 0 20  XYZ
    dof rx ry rz
    limits (-160.0 20.0)
           (-70.0 70.0)
           (-60.0 70.0)
  end
  begin
     id 3 
     name ltibia
     direction 0.34202 -0.939693 0   
     length 7.28749   
     axis 0 0 20   XYZ
    dof rx
    limits (-10.0 170.0)
  end
  begin
     id 4 
     name lfoot
     direction 0.100608 -0.276418 0.955757   
     length 1.52195   
     axis -90 7.62852e-016 20   XYZ
    dof rx rz
    limits (-45.0 90.0)
           (-70.0 20.0)
  end
  begin
     id 5 
     name ltoes
     direction 1.53558e-011 -4.21907e-011 1   
     length 0.770459   
     axis -90 7.62852e-016 20   XYZ
    dof rx
    limits (-90.0 20.0)
  end
  begin
     id 6 
     name rhipjoint
     direction -0.488071 -0.788702 0.373812   
     length 2.04648  
     axis 0 0 0  XYZ 
  end
  begin
     id 7 
     name rfemur
     direction -0.34202 -0.939693 0   
     length 6.92583   
     axis 0 0 -20   XYZ
    dof rx ry rz
    limits (-160.0 20.0)
           (-70.0 70.0)
           (-70.0 60.0)
  end
  begin
     id 8 
     name rtibia
     direction -0.34202 -0.939693 0   
     length 7.41043   
     axis 0 0 -20   XYZ
    dof rx
    limits (-10.0 170.0)
 end
 begin
     id 9 
     name rfoot
     direction -0.0784433 -0.215521 0.973343   
     length 1.67708  
     axis -90 -7.62852e-016 -20   XYZ
    dof rx rz
    limits (-45.0 90.0)
           (-20.0 70.0)
  end
  begin
     id 10 
     name rtoes
     direction -1.53551e-011 -4.21842e-011 1   
     length 0.849787   
     axis -90 -7.62852e-016 -20   XYZ
    dof rx
    limits (-90.0 20.0)
  end
  begin
     id 11 
     name lowerback
     direction -0.0122332 0.997575 -0.0685192   
     length 1.98724   
     axis 0 0 0   XYZ
    dof rx ry rz
    limits (-20.0 45.0)
           (-30.0 30.0)
           (-30.0 30.0)
  end
  begin
     id 12 
     name upperback
     direction 0.0182347 0.999724 -0.0148421   
     length 1.99029   
     axis 0 0 0   XYZ
    dof rx ry rz
    limits (-20.0 45.0)
           (-30.0 30.0)
           (-30.0 30.0)
  end
  begin
     id 13 
     name thorax
     direction 0.0242908 0.99956 0.0170184   
     length 1.99573   
     axis 0 0 0   XYZ
    dof rx ry rz
    limits (-20.0 45.0)
           (-30.0 30.0)
           (-30.0 30.0)
  end
  begin
     id 14 
     name lowerneck
     direction 0.0654488 0.985533 0.156338   
     length 1.4285   
     axis 0 0 0   XYZ
    dof rx ry rz
    limits (-20.0 45.0)
           (-30.0 30.0)
           (-30.0 30.0)
  end
  begin
     id 15 
     name upperneck
     direction -0.02953 0.998556 -0.0448842   
     length 1.44709   
     axis 0 0 0   XYZ
    dof rx ry rz
    limits (-20.0 45.0)
           (-30.0 30.0)
           (-30.0 30.0)
  end
  begin
     id 16
     name head
     direction -0.0155588 0.999386 -0.0314063  
     length 1.44689  
     axis 0 0 0   XYZ
    dof rx ry rz
    limits (-20.0 45.0)
           (-30.0 30.0)
           (-30.0 30.0)
  end
  begin
     id 17 
     name lclavicle
     direction 0.968229 0.236071 -0.0824755  
     length 3.60593  
     axis 0 0 0   XYZ
    dof ry rz
    limits (-20.0 10.0)
           (0.0 20.0)
  end
  begin
     id 18 
     name lhumerus
     direction 1 -4.48968e-011 7.8138e-029   
     length 5.06035   
     axis 180 -30 -90   XYZ
    dof rx ry rz
    limits (-60.0 90.0)
           (-90.0 90.0)
           (-90.0 90.0)
  end
  begin
     id 19
     name lradius
     direction 1 -4.48967e-011 9.02887e-028   
     length 3.1478   
     axis 180 -30 -90   XYZ
    dof rx
    limits (-10.0 170.0)
  end
  begin
     id 20
     name lwrist
     direction 1 -4.48961e-011 7.20928e-028   
     length 1.5739   
     axis -5.52449e-016 90 90   XYZ
    dof ry
    limits (-180.0 0.0)
 end
  begin
     id 21 
     name lhand
     direction 1 -4.48972e-011 1.44186e-027   
     length 0.606747   
     axis -9.20027e-016 90 90   XYZ
    dof rx rz
    limits (-90.0 90.0)
           (-45.0 45.0)
  end
  begin
     id 22 
     name lfingers
     direction 1 -4.48943e-011 2.88371e-027   
     length 0.489175   
     axis -1.84005e-015 90 90   XYZ
    dof rx
    limits (0.0 90.0)
  end
  begin
     id 23
     name lthumb
     direction 0.707107 -6.34917e-011 0.707107   
     length 0.70236   
     axis -90 45 2.85299e-015   XYZ
    dof rx rz
    limits (-45.0 45.0)
           (-45.0 45.0)
  end
  begin
     id 24 
     name rclavicle
     direction -0.978165 0.207816 0.0022268   
     length 3.35425  
     axis 0 0 0   XYZ 
    dof ry rz
    limits (-10.0 20.0)
           (-20.0 0.0)
  end
  begin
     id 25 
     name rhumerus
     direction -1 -4.48964e-011 -4.02159e-027  
     length 5.12273   
     axis 180 30 90   XYZ
    dof rx ry rz
    limits (-90.0 60.0)
           (-90.0 90.0)
           (-90.0 90.0)
  end
  begin
     id 26 
     name rradius
     direction -1 -4.48966e-011 1.62746e-027   
     length 3.422   
     axis 180 30 90   XYZ
    dof rx
    limits (-10.0 170.0)
  end
  begin
     id 27 
     name rwrist
     direction -1 -4.4896e-011 7.20928e-028   
     length 1.711   
     axis -5.52449e-016 -90 -90   XYZ
    dof ry
    limits (-180.0 0.0)
  end
  begin
     id 28
     name rhand
     direction -1 -4.48979e-011 1.44186e-027   
     length 0.704599   
     axis -9.20027e-016 -90 -90   XYZ
    dof rx rz
    limits (-90.0 90.0)
           (-45.0 45.0)
  end
  begin
     id 29
     name rfingers
     direction -1 -4.48962e-011 2.88371e-027   
     length 0.568066   
     axis -1.84005e-015 -90 -90   XYZ
    dof rx
    limits (0.0 90.0)
  end
  begin
     id 30
     name rthumb
     direction -0.707107 -6.34949e-011 0.707107   
     length 0.815633   
     axis -90 -45 -2.85299e-015   XYZ
    dof rx rz
    limits (-45.0 45.0)
           (-45.0 45.0)
  end
:hierarchy
  begin
    root lhipjoint rhipjoint lowerback
    lhipjoint lfemur
    lfemur ltibia
    ltibia lfoot
    lfoot ltoes
    rhipjoint rfemur
    rfemur rtibia
    rtibia rfoot
    rfoot rtoes
    lowerback upperback
    upperback thorax
    thorax lowerneck lclavicle rclavicle
    lowerneck upperneck
    upperneck head
    lclavicle lhumerus
    lhumerus lradius
    lradius lwrist
    lwrist lhand lthumb
    lhand lfingers
    rclavicle rhumerus
    rhumerus rradius
    rradius rwrist
    rwrist rhand rthumb
    rhand rfingers
  end

#!OML:ASF E:\id_vita\Project 1\Capture day 1\Session 1\Male1.ASF
:FULLY-SPECIFIED
:DEGREES
511
root 34.4568 15.7352 2.6192 155.322 69.8606 129.591
lowerback 36.4461 3.42727 4.94397
upperback 10.7677 7.84455 4.11054
thorax -6.08454 4.25037 -1.11971
lowerneck -13.9177 -6.99909 -5.10187
upperneck 16.0301 -8.89542 3.69019
head 7.62545 -4.14261 1.08082
rclavicle -1.59028e-014 1.44715e-013
rhumerus -156.293 -186.271 -265.001
rradius 51.0054
rwrist -372.917
rhand -37.5586 62.8714
rfingers 7.12502
rthumb -10.6135 -326.841
lclavicle -1.59028e-014 1.44715e-013
lhumerus -90.3251 46.4324 -27.7378
lradius 19.6327
lwrist -12.9556
lhand -16.0222 52.0816
lfingers 7.12502
lthumb 10.1788 441.815
rfemur -20.8028 -4.7873 18.1632
rtibia 37.6526
rfoot -30.8048 -12.8331
rtoes -7.98735
lfemur -81.6034 -10.2775 -38.7113
ltibia 81.0279
lfoot -21.8161 -10.0978
ltoes 45.0515
512
root 34.4662 15.7529 2.64178 154.739 69.9158 129.408
lowerback 36.3399 3.34918 4.88012
upperback 10.7771 7.67131 3.70235
thorax -5.99081 4.18242 -1.44173
lowerneck -14.1828 -6.90433 -4.15738
upperneck 15.8183 -8.89189 3.26376
head 7.53537 -4.12864 0.789437
rclavicle 1.59028e-014 -2.8625e-014
rhumerus -156.617 -185.381 -266.223
rradius 49.1393
rwrist -373.609
rhand -37.7201 63.0019
rfingers 7.12502
rthumb -10.7693 -326.702
lclavicle 1.59028e-014 -2.8625e-014
lhumerus -92.4299 47.0742 -30.1952
lradius 19.0863
lwrist -14.071
lhand -15.6294 52.1778
lfingers 7.12502
lthumb 10.5576 441.893
rfemur -20.1607 -4.68064 18.1699
rtibia 37.2532
rfoot -30.4168 -12.8065
rtoes -9.00448
lfemur -81.0951 -10.2833 -38.4547
ltibia 80.9722
lfoot -21.9474 -9.82207
ltoes 44.9077
513
root 34.478 15.7682 2.67009 153.64 69.7989 128.508
lowerback 36.1477 3.50492 4.6711
upperback 10.6538 7.71167 3.31148
thorax -6.02567 4.19557 -1.75173
lowerneck -14.0339 -6.94953 -3.76561
upperneck 15.4013 -9.07176 3.42589
head 7.36864 -4.18907 0.770678
rclavicle 1.33583e-013 -1.59028e-015
rhumerus -157.27 -184.002 -267.117
rradius 47.3333
rwrist -374.697
rhand -37.7231 63.5186
rfingers 7.12502
rthumb -10.7722 -326.185
lclavicle 1.33583e-013 -1.59028e-015
lhumerus -93.7372 47.8639 -31.7829
lradius 18.5348
lwrist -15.3187
lhand -15.1889 52.2128
lfingers 7.12502
lthumb 10.9826 441.906
rfemur -19.6906 -4.54928 17.8883
rtibia 36.8822
rfoot -29.8375 -13.0606
rtoes -10.239
lfemur -80.6654 -10.3652 -38.482
ltibia 80.8374
lfoot -22.0758 -9.53118
ltoes 44.6683
514
root 34.4864 15.7802 2.69917 153.908 69.7795 129.141
lowerback 36.0455 3.53658 4.88027
upperback 10.3152 7.79477 3.36548
thorax -6.34055 4.20141 -1.84801
lowerneck -13.0578 -6.97302 -4.30574
upperneck 14.8422 -9.0447 3.66625
head 7.05451 -4.20739 0.975916
rclavicle 6.99722e-014 1.06549e-013
rhumerus -158.499 -182.714 -267.536
rradius 45.5858
rwrist -375.489
rhand -37.6935 64.1045
rfingers 7.12502
rthumb -10.7436 -325.601
lclavicle 6.99722e-014 1.06549e-013
lhumerus -94.838 47.9979 -32.5444
lradius 18.0893
lwrist -16.8051
lhand -14.9145 52.1601
lfingers 7.12502
lthumb 11.2472 441.839
rfemur -19.1288 -4.4379 18.1662
rtibia 36.5021
rfoot -29.3435 -13.2142
rtoes -10.3281
lfemur -80.2809 -10.4977 -38.0085
ltibia 80.7506
lfoot -22.058 -9.3259
ltoes 44.4211
515
root 34.4927 15.797 2.72627 154.008 69.6962 129.453
lowerback 35.7243 3.49332 5.07071
upperback 10.3036 7.76096 3.2012
thorax -6.19416 4.19553 -2.08157
lowerneck -13.6214 -7.0093 -4.35761
upperneck 14.6968 -9.07777 3.66876
head 7.1083 -4.22629 0.963553
rclavicle -4.13472e-014 3.18055e-015
rhumerus -158.84 -181.168 -268.206
rradius 43.5878
rwrist -375.838
rhand -37.7449 64.8216
rfingers 7.12502
rthumb -10.7932 -324.881
lclavicle -4.13472e-014 3.18055e-015
lhumerus -96.6807 48.8263 -34.1433
lradius 17.6529
lwrist -18.842
lhand -14.734 52.1032
lfingers 7.12502
lthumb 11.4213 441.772
rfemur -18.7597 -4.43495 18.2872
rtibia 36.1384
rfoot -28.9528 -13.3833
rtoes -10.7751
lfemur -79.9835 -10.7057 -37.6588
ltibia 80.6095
lfoot -22.1428 -9.07473
ltoes 44.0183
516
root 34.4969 15.8194 2.75228 154.008 69.8655 129.799
lowerback 35.4625 3.28149 4.80436
upperback 10.2238 7.39865 3.29624
thorax -6.24997 4.01591 -1.71434
lowerneck -13.384 -6.66365 -5.0584
upperneck 14.2642 -8.47857 3.68303
head 6.9347 -3.9901 1.15649
rclavicle 1.90833e-014 -8.26944e-014
rhumerus -159.389 -180.913 -268.809
rradius 41.3279
rwrist -375.839
rhand -37.8911 65.7765
rfingers 7.12502
rthumb -10.9342 -323.919
lclavicle 1.90833e-014 -8.26944e-014
lhumerus -98.2017 48.4137 -34.4109
lradius 17.4393
lwrist -19.5975
lhand -14.2319 51.9631
lfingers 7.12502
lthumb 11.9055 441.605
rfemur -18.2974 -4.27739 18.5343
rtibia 35.801
rfoot -28.5778 -13.5718
rtoes -11.8907
lfemur -79.6191 -10.684 -37.1629
ltibia 80.4633
lfoot -22.2727 -8.83217
ltoes 43.6614
517
root 34.5047 15.8488 2.77981 153.336 70.0038 129.513
lowerback 35.0053 3.05546 3.36151
upperback 10.5727 6.72089 4.07721
thorax -6.11315 3.69774 0.0651555
lowerneck -13.9584 -6.02483 -7.01367
upperneck 14.0233 -7.16343 3.52734
head 6.96637 -3.47879 1.5441
rclavicle -5.725e-014 -5.40694e-014
rhumerus -159.471 -182.274 -268.589
rradius 39.0421
rwrist -375.48
rhand -38.2949 65.397
rfingers 7.12502
rthumb -11.3237 -324.277
lclavicle -5.725e-014 -5.40694e-014
lhumerus -101.237 47.2817 -34.3903
lradius 17.5125
lwrist -19.7637
lhand -13.7253 51.8053
lfingers 7.12502
lthumb 12.3939 441.418
rfemur -17.7387 -4.11515 18.5349
rtibia 35.4266
rfoot -28.1257 -13.0896
rtoes -11.9613
lfemur -79.0789 -10.5802 -36.8936
ltibia 80.241
lfoot -22.3067 -8.69086
ltoes 43.8113
518
root 34.514 15.8763 2.81799 152.553 69.7918 128.927
lowerback 34.6505 3.18682 2.64206
upperback 10.3966 6.62159 4.22956
thorax -6.27275 3.62702 0.635762
lowerneck -13.6192 -5.84328 -7.49487
upperneck 13.5716 -6.82642 3.45092
head 6.75954 -3.35391 1.6448
rclavicle -7.63333e-014 -7.63333e-014
rhumerus -160.235 -180.76 -268.991
rradius 37.1824
rwrist -374.232
rhand -38.9827 62.549
rfingers 7.12502
rthumb -11.9869 -327.088
lclavicle -7.63333e-014 -7.63333e-014
lhumerus -101.351 47.423 -33.1103
lradius 17.3007
lwrist -20.9598
lhand -13.3807 51.655
lfingers 7.12502
lthumb 12.7262 441.247
rfemur -17.375 -4.08778 18.2943
rtibia 35.0876
rfoot -27.6133 -11.9356
rtoes -10.3895
lfemur -78.5839 -10.6777 -36.8984
ltibia 79.9591
lfoot -22.2956 -8.60036
ltoes 43.5462
519
root 34.5265 15.9035 2.85194 151.952 69.801 129.032
lowerback 34.8934 3.30099 2.98201
upperback 10.0956 6.8252 3.88008
thorax -6.60666 3.7065 -0.00343928
lowerneck -12.7776 -5.83158 -6.96452
upperneck 12.8401 -6.99032 3.56289
head 6.37417 -3.40849 1.60719
rclavicle -5.725e-014 -2.06736e-014
rhumerus -161.214 -177.888 -269.924
rradius 35.0992
rwrist -373.74
rhand -39.1162 62.2415
rfingers 7.12502
rthumb -12.1157 -327.388
lclavicle -5.725e-014 -2.06736e-014
lhumerus -99.5869 48.3035 -31.1564
lradius 16.8948
lwrist -22.7007
lhand -13.0276 51.3592
lfingers 7.12502
lthumb 13.0666 440.93
rfemur -16.4415 -4.17309 18.3379
rtibia 34.728
rfoot -26.9354 -11.0531
rtoes -9.06563
lfemur -77.66 -10.6025 -36.6605
ltibia 79.7147
lfoot -22.47 -8.30298
ltoes 42.585
520
root 34.5136 15.9245 2.87828 150.779 70.314 128.183
lowerback 34.8467 3.64135 3.17655
upperback 9.74841 7.2008 3.37528
thorax -6.87469 3.85538 -0.775195
lowerneck -12.0147 -5.82789 -6.27414
upperneck 12.0856 -7.18454 3.73735
head 5.9952 -3.4697 1.56114
rclavicle -1.27222e-014 3.18055e-014
rhumerus -162.055 -174.798 -271.03
rradius 32.882
rwrist -373.098
rhand -39.0562 62.5746
rfingers 7.12502
rthumb -12.0579 -327.058
lclavicle -1.27222e-014 3.18055e-014
lhumerus -96.5363 49.1311 -27.6406
lradius 16.5793
lwrist -23.717
lhand -12.8546 51.015
lfingers 7.12502
lthumb 13.2334 440.575
rfemur -16.0565 -3.8461 18.3763
rtibia 34.4458
rfoot -25.899 -11.1029
rtoes -9.6383
lfemur -77.3836 -10.174 -36.3163
ltibia 79.4968
lfoot -22.5745 -7.90696
ltoes 41.9357
521
root 34.5168 15.9525 2.91795 150.341 70.0171 127.97
lowerback 34.5633 3.61901 2.94102
upperback 9.54877 7.03887 3.17157
thorax -6.99086 3.76706 -0.803156
lowerneck -12.0028 -5.75844 -6.19964
upperneck 11.6771 -7.10884 3.74967
head 5.85767 -3.43376 1.56468
rclavicle 9.22361e-014 4.13472e-014
rhumerus -162.394 -172.276 -271.911
rradius 30.4009
rwrist -372.183
rhand -39.2236 62.311
rfingers 7.12502
rthumb -12.2192 -327.312
lclavicle 9.22361e-014 4.13472e-014
lhumerus -94.7406 49.7172 -24.6716
lradius 16.552
lwrist -24.9878
lhand -12.6632 50.478
lfingers 7.12502
lthumb 13.4179 440.026
rfemur -15.6575 -4.05223 18.2218
rtibia 34.1307
rfoot -25.0329 -11.0632
rtoes -10.1282
lfemur -76.8637 -10.4016 -36.2556
ltibia 79.1747
lfoot -22.5548 -7.83028
ltoes 41.7773
